# xmcd
#
# Track frame offsets:
#	150
#	13497
#	25375
#	40025
#	50297
#	64652
#	79175
#	90710
#	103767
#	118087
#	130637
#	144095
#	157595
#	189567
#	207855
#
# Disc length: 2967 seconds
# Revision: 0
# Processed by: cddbd v1.5.2PL0 Copyright (c) Steve Scherf et al.
# Submitted via: dBpowerAMP V12.0
#
DISCID=bf0b950f
DTITLE=Various Artist - Tradition Runs Deep
DYEAR=1998
DGENRE=Blues
TTITLE0=Mississippi Fred McDowell - You Got to Move
TTITLE1=Etta Baker - John Henry
TTITLE2=Leadbelly - In New Orleans (House of the Rising Sun)
TTITLE3=Woody Guthrie - More Pretty Girls Than One
TTITLE4=Big Bill Broonzy - Treat Everybody Right
TTITLE5=Odetta - Jack O' Diamonds
TTITLE6=The Kossoy Sisters and Erik Darling - Down in the Willow Garden
TTITLE7=Sonny Terry and Brownie McGhee - Walk On
TTITLE8=Lightnin' Hopkins - See See Rider
TTITLE9=Blind Lemon Jefferson - Balky Mule Blues
TTITLE10=Louis Armstrong - I'm Not Rough
TTITLE11=Dizzy Gillespie - Oop Bop Sh-bam
TTITLE12=Charlie Barnet - Cherokee
TTITLE13=Pete Fountain - Bayou Blues
TTITLE14=Woody Herman and Charlie Byrd - Bamba Samba
EXTD=
EXTT0=
EXTT1=
EXTT2=
EXTT3=
EXTT4=
EXTT5=
EXTT6=
EXTT7=
EXTT8=
EXTT9=
EXTT10=
EXTT11=
EXTT12=
EXTT13=
EXTT14=
PLAYORDER=
